<?xml version="1.0" standalone="no"?><!DOCTYPE svg PUBLIC "-//W3C//DTD SVG 1.1//EN" "http://www.w3.org/Graphics/SVG/1.1/DTD/svg11.dtd"><svg t="1753156270982" class="icon" viewBox="0 0 1024 1024" version="1.1" xmlns="http://www.w3.org/2000/svg" p-id="1526" width="64" height="64" xmlns:xlink="http://www.w3.org/1999/xlink"><path d="M256 96A160 160 0 0 0 96 256v64h64V256A96 96 0 0 1 256 160h64v-64H256z m448 64h64A96 96 0 0 1 864 256v64h64V256A160 160 0 0 0 768 96h-64v64zM160 768v-64h-64v64A160 160 0 0 0 256 928h64v-64H256A96 96 0 0 1 160 768z m704-64v64a96 96 0 0 1-96 96h-64v64h64a160 160 0 0 0 160-160v-64h-64zM482.112 363.072H299.2v59.072h70.4A404.608 404.608 0 0 0 458.88 588.864c-44.16 30.016-99.008 55.232-164.48 75.648 13.44 16.96 27.968 38.08 43.776 63.424 68.096-25.344 125.504-55.68 172.352-90.944 46.528 36.608 103.04 66.048 169.728 88.32 7.872-13.44 23.936-34.816 48.128-64.32-65.92-16.32-121.344-40-166.208-71.04 41.408-45.696 73.088-101.568 95.104-167.808h65.024v-59.072H555.52a2315.52 2315.52 0 0 0-24.96-68.672l-66.944 13.568c7.744 21.888 13.888 40.256 18.432 55.104z m-44.864 59.072h145.664a300.16 300.16 0 0 1-72.576 124.032 308.928 308.928 0 0 1-73.088-124.032z" fill="#2c2c2c" p-id="1527"></path></svg>