<?xml version="1.0" standalone="no"?><!DOCTYPE svg PUBLIC "-//W3C//DTD SVG 1.1//EN" "http://www.w3.org/Graphics/SVG/1.1/DTD/svg11.dtd"><svg t="1754032069938" class="icon" viewBox="0 0 1024 1024" version="1.1" xmlns="http://www.w3.org/2000/svg" p-id="2990" width="32" height="32" xmlns:xlink="http://www.w3.org/1999/xlink"><path d="M902.144 0H330.752a122.538667 122.538667 0 0 0-121.856 121.856v87.04H121.856A122.538667 122.538667 0 0 0 0 330.752v571.392A122.538667 122.538667 0 0 0 121.856 1024h571.392a122.538667 122.538667 0 0 0 121.856-121.856v-87.04h87.04A122.538667 122.538667 0 0 0 1024 693.248V121.856A122.538667 122.538667 0 0 0 902.144 0z m-189.44 902.144a19.797333 19.797333 0 0 1-19.456 19.456H121.856a19.797333 19.797333 0 0 1-19.456-19.456V330.752a19.797333 19.797333 0 0 1 19.456-19.456h571.392a20.138667 20.138667 0 0 1 19.456 19.456zM921.6 693.248a19.797333 19.797333 0 0 1-19.456 19.456h-87.04V330.752a122.538667 122.538667 0 0 0-121.856-121.856H311.296V121.856A19.797333 19.797333 0 0 1 330.752 102.4h571.392a19.797333 19.797333 0 0 1 19.456 19.456z" fill="#2c2c2c" p-id="2991"></path></svg>