<?xml version="1.0" standalone="no"?><!DOCTYPE svg PUBLIC "-//W3C//DTD SVG 1.1//EN" "http://www.w3.org/Graphics/SVG/1.1/DTD/svg11.dtd"><svg t="1754528495887" class="icon" viewBox="0 0 1024 1024" version="1.1" xmlns="http://www.w3.org/2000/svg" p-id="7289" width="32" height="32" xmlns:xlink="http://www.w3.org/1999/xlink"><path d="M859.333333 0q24.380952 0 42.440917 18.059965t18.059965 42.440917v594.172839q0 25.283951-18.059965 42.892417T859.333333 715.174603H732.010582v126.419753q0 25.283951-18.059965 42.892416T670.606702 902.095238H79.142857q-25.283951 0-43.343915-17.608466T17.738977 841.594356V247.421517q0.902998-25.283951 18.511464-42.892416T79.142857 186.920635h127.322751V60.500882q0-25.283951 17.608466-42.892416T266.96649 0h592.366843zM664.285714 253.742504H85.463845v581.530865h578.821869V253.742504zM852.109347 67.724868H273.287478V186.920635h397.319224q25.283951 0 43.343915 17.608466t18.059965 42.892416v400.931217h120.098765V67.724868z" fill="#2c2c2c" p-id="7290"></path></svg>