<?xml version="1.0" standalone="no"?><!DOCTYPE svg PUBLIC "-//W3C//DTD SVG 1.1//EN" "http://www.w3.org/Graphics/SVG/1.1/DTD/svg11.dtd"><svg t="1784703121262" class="icon" viewBox="0 0 1024 1024" version="1.1" xmlns="http://www.w3.org/2000/svg" p-id="2029" xmlns:xlink="http://www.w3.org/1999/xlink" width="256" height="256"><path d="M909.306581 433.712711c-4.967038-12.078933-13.998016-18.852166-27.092933-19.868151-13.659354-1.015985-26.41561 7.563444-30.931099 20.545474-1.354647 3.838166-1.580421 7.789218-1.580421 11.740271v381.671701c0 10.15985-3.838166 18.852166-11.40161 25.6254-6.886121 6.208797-15.239775 8.918091-24.496527 8.918091H185.473707c-2.483519 0-5.079925-0.112887-7.563444-0.451549-8.692316-1.015985-15.917098-4.967038-21.561459-11.740271-5.757248-6.886121-7.789218-15.014001-7.789219-23.932092V196.536655c0-2.596406 0.112887-5.305699 0.564437-7.789218 2.257744-12.417595 9.143865-20.997023 20.997023-25.6254 4.967038-1.919083 10.046963-2.257744 15.239775-2.257744H616.928674c3.386617 0 6.660346-0.677323 9.934075-2.03197 11.514497-4.741263 20.432587-17.723294 18.852167-32.172859-1.467534-12.417595-9.934076-22.690332-21.787234-26.076948-3.273729-0.903098-6.660346-1.015985-10.046963-1.015985H180.280895c-6.999008 0-13.998016 0.338662-20.997023 1.919082-17.723294 3.951053-33.075956 12.304707-45.832213 25.286738C95.95414 144.947194 86.923162 166.508654 86.923162 191.45673c-0.112887 213.469739-0.112887 426.939477 0 640.296329 0 4.854151 0.451549 9.821188 1.241759 14.675339 3.273729 20.432587 12.417595 37.81722 27.431595 52.04101 17.610407 16.707309 38.494543 25.399625 62.878184 25.399625H820.35145c6.660346 0 13.207805-0.790211 19.642376-2.370632 22.238783-5.531474 40.074964-17.723294 53.621431-36.123911 11.175835-15.126888 17.384632-32.285746 17.384633-51.137912 0.112887-130.271855 0.112887-260.543711 0.112887-390.815566-0.112887-3.273729-0.564436-6.547459-1.806196-9.708301z" p-id="2030"></path><path d="M935.722192 229.951273c-3.499504-16.25576-11.288722-30.253776-23.028994-41.994047-12.756256-12.869143-25.6254-25.738287-38.494543-38.494543-3.499504-3.499504-7.337669-6.773233-11.401609-9.595414-16.820196-11.740271-35.559475-16.820196-55.992063-14.110903-14.562452 1.919083-27.318708 8.12788-37.81722 18.626392-134.110021 133.997134-268.220042 268.220042-402.44295 402.330063-2.483519 2.483519-4.854151 4.967038-7.337669 7.450557-1.919083 1.919083-3.273729 4.289714-3.951053 6.999008-13.885128 50.79925-27.770257 101.598501-41.542498 152.397751-0.564436 2.257744-1.128872 4.628376-1.24176 6.999008-0.451549 9.030978 2.709293 16.707309 9.595414 22.464557 7.676331 6.434572 16.594422 7.902106 26.302723 5.305699l42.332709-11.514496c33.414618-9.143865 66.829236-18.28773 100.243854-27.318708 3.160842-0.903098 6.321684-2.144857 9.595414-2.370632 3.386617-0.225774 5.644361-1.580421 7.902105-3.838166 136.480653-136.59354 273.074192-273.074192 409.554846-409.667732 1.580421-1.580421 3.160842-3.273729 4.628376-5.079925 9.821188-12.530482 14.675339-26.754272 14.336677-43.91313 0.338662-4.289714-0.112887-9.482527-1.241759-14.675339zM380.09128 682.403263l-0.564436-0.564436c6.547459-24.270753 13.207805-48.541506 19.868151-72.925146 2.370632 1.467534 52.379671 51.476574 53.395657 53.508544-24.270753 6.660346-48.541506 13.320692-72.699372 19.981038z m118.080035-53.508544c-21.787234-21.448572-43.122919-43.010032-64.571491-64.345717 98.437658-98.211884 196.536655-196.197994 294.974313-294.409877 20.997023 21.335685 42.219821 42.897145 63.894169 64.910153-98.098997 97.873222-195.972219 195.859332-294.296991 293.845441z m381.784588-386.864513c-0.225774 3.499504-1.354647 6.660346-3.951052 9.143865-12.756256 12.869143-25.6254 25.6254-38.494543 38.494543-0.451549 0.451549-0.903098 0.790211-1.580422 1.354647l-64.119942-65.135928c0.790211-0.903098 1.467534-1.580421 2.03197-2.144857 11.966046-11.966046 24.044979-23.819204 36.011024-35.898137 5.079925-5.192812 10.837173-5.983023 17.49752-4.06394 3.047955 0.903098 5.644361 2.596406 7.902105 4.854151l38.268769 38.268768c4.176827 4.06394 6.660346 9.030978 6.434571 15.126888z" p-id="2031"></path></svg>