<?xml version="1.0" standalone="no"?><!DOCTYPE svg PUBLIC "-//W3C//DTD SVG 1.1//EN" "http://www.w3.org/Graphics/SVG/1.1/DTD/svg11.dtd"><svg t="1784700652695" class="icon" viewBox="0 0 1024 1024" version="1.1" xmlns="http://www.w3.org/2000/svg" p-id="7025" xmlns:xlink="http://www.w3.org/1999/xlink" width="256" height="256"><path d="M153.6 800v-112h76.8v112c0 14.08 11.52 25.6 25.6 25.6h512a25.6 25.6 0 0 0 25.6-25.6v-112h76.8v112a102.4 102.4 0 0 1-102.4 102.4H256a102.4 102.4 0 0 1-102.4-102.4z m640-576a25.6 25.6 0 0 0-25.6-25.6H256a25.6 25.6 0 0 0-25.6 25.6v112H153.6V224A102.4 102.4 0 0 1 256 121.6h512a102.4 102.4 0 0 1 102.4 102.4v112h-76.8V224zM153.6 377.6h76.8v115.2H153.6V377.6zM153.6 531.2h76.8v115.2H153.6V531.2zM793.6 377.6h76.8v115.2h-76.8V377.6zM793.6 531.2h76.8v115.2h-76.8V531.2z" fill="#333333" p-id="7026"></path><path d="M478.976 429.248c0-6.08 2.816-11.904 7.808-16.128A28.992 28.992 0 0 1 505.6 406.4c7.04 0 13.824 2.432 18.816 6.72a21.376 21.376 0 0 1 7.808 16.128v219.136l87.616-75.264a27.072 27.072 0 0 1 8.64-5.12 30.4 30.4 0 0 1 29.312 4.8c2.56 2.176 4.48 4.736 5.76 7.488a20.032 20.032 0 0 1-0.128 17.728 23.04 23.04 0 0 1-5.952 7.424l-133.12 114.24a28.992 28.992 0 0 1-18.752 6.72 28.992 28.992 0 0 1-18.816-6.72L353.664 605.44a23.104 23.104 0 0 1-5.888-7.424 20.16 20.16 0 0 1-0.192-17.728 22.912 22.912 0 0 1 5.76-7.488 27.264 27.264 0 0 1 8.768-4.992 30.464 30.464 0 0 1 29.248 5.312l87.68 75.264V429.248z" fill="#333333" p-id="7027"></path><path d="M532.224 634.944a27.84 27.84 0 0 1-7.808 19.392 26.24 26.24 0 0 1-37.632 0 27.84 27.84 0 0 1-7.808-19.392V372.032l-87.68 90.304a26.624 26.624 0 0 1-18.88 8.384 25.92 25.92 0 0 1-19.008-8 27.52 27.52 0 0 1-7.808-19.648 28.16 28.16 0 0 1 8.128-19.52l133.056-137.152a26.24 26.24 0 0 1 37.632 0l133.056 137.152a27.392 27.392 0 0 1 8.128 19.52 28.16 28.16 0 0 1-7.808 19.648 26.56 26.56 0 0 1-19.072 8 25.92 25.92 0 0 1-18.88-8.32l-87.68-90.368v262.912z" fill="#333333" p-id="7028"></path></svg>